<?xml version="1.0" encoding="utf-8"?>
<!-- Generator: Adobe Illustrator 24.0.1, SVG Export Plug-In . SVG Version: 6.00 Build 0)  -->
<svg version="1.1"
	 id="svg16" inkscape:version="1.2.1 (9c6d41e410, 2022-07-14)" sodipodi:docname="openhab.svg" xmlns:inkscape="http://www.inkscape.org/namespaces/inkscape" xmlns:sodipodi="http://sodipodi.sourceforge.net/DTD/sodipodi-0.dtd" xmlns:svg="http://www.w3.org/2000/svg"
	 xmlns="http://www.w3.org/2000/svg" xmlns:xlink="http://www.w3.org/1999/xlink" x="0px" y="0px" viewBox="0 0 32 32"
	 style="enable-background:new 0 0 32 32;" xml:space="preserve">
<style type="text/css">
	.st0{fill:#E64A19;}
	.st1{fill:#474747;}
	.st2{display:none;fill:#FFFFFF;}
	.st3{display:none;}
	.st4{fill:none;stroke:#1F67BF;stroke-miterlimit:10;}
</style>
<sodipodi:namedview  bordercolor="#000000" borderopacity="0.25" id="namedview18" inkscape:current-layer="layer2" inkscape:cx="14.566308" inkscape:cy="14.528076" inkscape:deskcolor="#d1d1d1" inkscape:pagecheckerboard="0" inkscape:pageopacity="0.0" inkscape:showpageshadow="2" inkscape:window-height="1017" inkscape:window-maximized="1" inkscape:window-width="1920" inkscape:window-x="-8" inkscape:window-y="-8" inkscape:zoom="26.15625" pagecolor="#ffffff" showgrid="false" showguides="true">
	</sodipodi:namedview>
<g id="layer1" inkscape:groupmode="layer" inkscape:label="openhab_icon" sodipodi:insensitive="true">
	<path id="orange_arrow" class="st0" d="M7.3,20.1l7.5-7.5l1.1-1.1l1.1,1.1l5.5,5.5l0,0l-0.1,0.3l-0.2,0.4l-0.2,0.3l-0.2,0.3
		l-0.2,0.2l-5.9-6l-7.8,7.8C7.9,21,7.6,20.6,7.3,20.1L7.3,20.1z"/>
	<path id="path14" inkscape:label="gray_circle" class="st1" d="M16,6.4c5.3,0,9.6,4.3,9.6,9.6s-4.3,9.6-9.6,9.6
		c-2.9,0-5.5-1.3-7.3-3.3L9,22l0.2-0.2l0.3-0.3l0.2-0.2l0,0c1.5,1.8,3.8,2.9,6.2,2.9c4.4,0,8.1-3.6,8.1-8.1S20.4,7.9,16,7.9
		c-4.5,0-8.1,3.6-8.1,8.1c0,0.6,0.1,1.2,0.2,1.8l-0.6,0.6L6.8,19c-0.2-1-0.4-2-0.4-3C6.4,10.7,10.7,6.4,16,6.4z"/>
</g>
<polygon class="st2" points="24.9,32 7.1,32 11.5,23.5 20.5,23.5 "/>
<path class="st3" d="M20.4,25.7c-1.2,0.3-2.3,1.1-3,2.3c-0.7,1.2-0.8,2.5-0.5,3.7l1.2-0.7c-0.1-0.6,0-1.2,0.2-1.8l2.8,1.6l0.7-0.4
	v-0.8L19,28c0.4-0.5,0.9-0.8,1.5-1v-1.3H20.4z M11.6,25.7V27c0.6,0.2,1.1,0.6,1.5,1l-2.8,1.6v0.8l0.7,0.4l2.8-1.6
	c0.2,0.6,0.3,1.2,0.2,1.8l1.2,0.7c0.3-1.2,0.2-2.6-0.5-3.7C14,26.8,12.9,26,11.6,25.7L11.6,25.7z M16,20.6L15.3,21v3.2
	c-0.6-0.1-1.2-0.4-1.6-0.8l-1.2,0.7c0.9,0.9,2.1,1.4,3.5,1.4s2.6-0.5,3.5-1.4l-1.2-0.7c-0.5,0.4-1,0.6-1.6,0.8V21L16,20.6z"/>
<path class="st4" d="M2.4,8.6c0-1.8-0.2-3.2,0.8-4.5C4.4,2.7,6,2.6,8.3,2.6"/>
<path class="st4" d="M29.6,8.6c0-1.8,0.2-3.2-0.8-4.5c-1.2-1.4-2.8-1.5-5.1-1.5"/>
<path class="st4" d="M2.7,23.7c0,1.8-0.2,3.2,0.8,4.5c1.2,1.4,2.8,1.5,5.1,1.5"/>
<path class="st4" d="M29.9,23.7c0,1.8,0.2,3.2-0.8,4.5c-1.2,1.4-2.8,1.5-5.1,1.5"/>
</svg>
