<?xml version="1.0" encoding="utf-8"?>
<!-- Generator: Adobe Illustrator 24.0.1, SVG Export Plug-In . SVG Version: 6.00 Build 0)  -->
<svg version="1.1"
	 id="svg16" inkscape:version="1.2.1 (9c6d41e410, 2022-07-14)" sodipodi:docname="openhab.svg" xmlns:inkscape="http://www.inkscape.org/namespaces/inkscape" xmlns:sodipodi="http://sodipodi.sourceforge.net/DTD/sodipodi-0.dtd" xmlns:svg="http://www.w3.org/2000/svg"
	 xmlns="http://www.w3.org/2000/svg" xmlns:xlink="http://www.w3.org/1999/xlink" x="0px" y="0px" viewBox="0 0 32 32"
	 style="enable-background:new 0 0 32 32;" xml:space="preserve">
<style type="text/css">
	.st0{fill:#E64A19;}
	.st1{fill:#474747;}
	.st2{display:none;fill:#FFFFFF;}
	.st3{display:none;}
	.st4{fill:none;stroke:#1F67BF;stroke-miterlimit:10;}
</style>
<sodipodi:namedview  bordercolor="#000000" borderopacity="0.25" id="namedview18" inkscape:current-layer="layer2" inkscape:cx="14.566308" inkscape:cy="14.528076" inkscape:deskcolor="#d1d1d1" inkscape:pagecheckerboard="0" inkscape:pageopacity="0.0" inkscape:showpageshadow="2" inkscape:window-height="1017" inkscape:window-maximized="1" inkscape:window-width="1920" inkscape:window-x="-8" inkscape:window-y="-8" inkscape:zoom="26.15625" pagecolor="#ffffff" showgrid="false" showguides="true">
	</sodipodi:namedview>
<g id="layer1" inkscape:groupmode="layer" inkscape:label="openhab_icon" sodipodi:insensitive="true">
	<path id="orange_arrow" class="st0" d="M5.2,21.1l9.4-9.4l1.4-1.4l1.4,1.4l6.9,6.9l0,0L24.2,19L24,19.5l-0.2,0.4l-0.2,0.4l-0.2,0.3
		L16,13.1l-9.8,9.8C5.9,22.3,5.5,21.7,5.2,21.1L5.2,21.1z"/>
	<path id="path14" inkscape:label="gray_circle" class="st1" d="M16,4c6.6,0,12,5.4,12,12s-5.4,12-12,12c-3.6,0-6.9-1.6-9.1-4.1
		l0.4-0.4l0.3-0.3L8,22.8l0.3-0.3l0,0c1.9,2.3,4.7,3.6,7.7,3.6c5.5,0,10.1-4.5,10.1-10.1S21.5,5.9,16,5.9C10.4,5.9,5.9,10.4,5.9,16
		c0,0.7,0.1,1.5,0.2,2.2l-0.7,0.7l-0.9,0.9C4.2,18.5,4,17.3,4,16C4,9.4,9.4,4,16,4z"/>
</g>
<polygon class="st2" points="24.9,32 7.1,32 11.5,23.5 20.5,23.5 "/>
<path class="st3" d="M20.4,25.7c-1.2,0.3-2.3,1.1-3,2.3c-0.7,1.2-0.8,2.5-0.5,3.7l1.2-0.7c-0.1-0.6,0-1.2,0.2-1.8l2.8,1.6l0.7-0.4
	v-0.8L19,28c0.4-0.5,0.9-0.8,1.5-1v-1.3H20.4z M11.6,25.7V27c0.6,0.2,1.1,0.6,1.5,1l-2.8,1.6v0.8l0.7,0.4l2.8-1.6
	c0.2,0.6,0.3,1.2,0.2,1.8l1.2,0.7c0.3-1.2,0.2-2.6-0.5-3.7C14,26.8,12.9,26,11.6,25.7L11.6,25.7z M16,20.6L15.3,21v3.2
	c-0.6-0.1-1.2-0.4-1.6-0.8l-1.2,0.7c0.9,0.9,2.1,1.4,3.5,1.4s2.6-0.5,3.5-1.4l-1.2-0.7c-0.5,0.4-1,0.6-1.6,0.8V21L16,20.6z"/>
<path class="st4" d="M2.4,8.6c0-1.8-0.2-3.2,0.8-4.5C4.4,2.7,6,2.6,8.3,2.6"/>
<path class="st4" d="M29.6,8.6c0-1.8,0.2-3.2-0.8-4.5c-1.2-1.4-2.8-1.5-5.1-1.5"/>
<path class="st4" d="M2.7,23.7c0,1.8-0.2,3.2,0.8,4.5c1.2,1.4,2.8,1.5,5.1,1.5"/>
<path class="st4" d="M29.9,23.7c0,1.8,0.2,3.2-0.8,4.5c-1.2,1.4-2.8,1.5-5.1,1.5"/>
</svg>
